<?xml version="1.0" encoding="utf-8"?>
<!-- Generator: Adobe Illustrator 21.0.0, SVG Export Plug-In . SVG Version: 6.00 Build 0)  -->
<svg version="1.1" id="Layer_1" xmlns="http://www.w3.org/2000/svg" xmlns:xlink="http://www.w3.org/1999/xlink" x="0px" y="0px"
	 viewBox="0 0 512 512" style="enable-background:new 0 0 512 512;" xml:space="preserve">
<style type="text/css">
	.st0{fill:#FED8B2;}
	.st1{fill:#EABE96;}
	.st2{fill:#F4E3C3;}
	.st3{fill:#F9B54C;}
	.st4{fill:#F4A200;}
	.st5{fill:#59595B;}
	.st6{fill:#272525;}
	.st7{fill:#324A5E;}
	.st8{fill:#2B3B4E;}
	.st9{fill:#FD8469;}
	.st10{fill:#FC6F58;}
	.st11{fill:#935635;}
	.st12{fill:#804000;}
	.st13{fill:#B97850;}
	.st14{fill:#FFD15D;}
	.st15{fill:#FF6472;}
	.st16{fill:#C75163;}
	.st17{fill:#F1543F;}
	.st18{fill:#C1321F;}
</style>
<path class="st0" d="M381,322.8v-21.6h-39v21.6c0,1.7-1.4,3.1-3.1,3.1H312v74.6h99v-74.6h-26.9C382.4,325.9,381,324.5,381,322.8z"/>
<path class="st1" d="M411,325.9h-26.9c-1.7,0-3.1-1.4-3.1-3.1v-21.6h-20.4v99.3H411V325.9L411,325.9z"/>
<circle class="st0" cx="296.7" cy="255.9" r="15.6"/>
<circle class="st1" cx="423" cy="255.9" r="15.6"/>
<path class="st2" d="M361.6,320.7h-3.5c-32.5,0-58.8-26.3-58.8-58.8v-53.7c0-32.5,26.3-58.8,58.8-58.8h3.5
	c32.5,0,58.8,26.3,58.8,58.8v53.7C420.4,294.4,394.1,320.7,361.6,320.7z"/>
<path class="st0" d="M361.6,149.5h-1v171.3h1c32.5,0,58.8-26.3,58.8-58.8v-53.7C420.4,175.8,394.1,149.5,361.6,149.5z"/>
<path class="st3" d="M414.1,169.3c-11.5-16.5-30.6-27.2-52.3-27.2H358c-35.3,0-63.8,28.6-63.8,63.8v4.9v45h9.4v-26.4c0,0,0,0,0,0
	c28.4-2.9,56.4-8.5,80.9-20.7c8.8,10.1,19,19.2,30.3,26.5v20.6h11v-33.6V206C425.6,192.3,421.3,179.7,414.1,169.3z"/>
<path class="st4" d="M414.1,169.3c-11.5-16.5-30.6-27.2-52.3-27.2h-1.1v76.3c8.2-2.6,16.2-5.8,23.8-9.6c8.8,10.1,19,19.2,30.3,26.5
	v20.6h11v-33.6V206C425.6,192.3,421.3,179.7,414.1,169.3z"/>
<circle class="st5" cx="331.3" cy="248.9" r="6.1"/>
<circle class="st6" cx="388.4" cy="248.9" r="6.1"/>
<path class="st7" d="M460.5,410v-38.9c0-25-20.3-45.2-45.2-45.2h-20.7c0,18.2-33,35.9-33,35.9s-33-17.7-33-35.9h-20.7
	c-25,0-45.2,20.3-45.2,45.2v140.8C343.5,509.9,415,470.3,460.5,410z"/>
<path class="st8" d="M415.3,325.9h-20.7c0,18.2-33,35.9-33,35.9s-0.2-0.1-0.5-0.3v128c39.5-17.8,73.7-45.3,99.5-79.5v-38.9
	C460.5,346.2,440.3,325.9,415.3,325.9z"/>
<path class="st9" d="M359.9,298.6c-10.9,0-19.8-8.9-19.8-19.8c0-1.9,1.5-3.4,3.4-3.4s3.4,1.5,3.4,3.4c0,7.2,5.9,13.1,13.1,13.1
	S373,286,373,278.8c0-1.9,1.5-3.4,3.4-3.4s3.4,1.5,3.4,3.4C379.7,289.7,370.8,298.6,359.9,298.6z"/>
<path class="st10" d="M379.7,278.8c0-1.9-1.5-3.4-3.4-3.4s-3.4,1.5-3.4,3.4c0,7-5.5,12.6-12.3,13v6.7
	C371.2,298.1,379.7,289.4,379.7,278.8z"/>
<polygon class="st11" points="84.6,260.4 84.6,349.1 150.7,344.8 150.7,256.1 "/>
<polygon class="st12" points="216.7,251.8 150.7,256.1 150.7,344.8 216.7,340.5 "/>
<path class="st0" d="M170.3,332.1v-21.7h-39.1v21.7c0,1.7-1.4,3.1-3.1,3.1h-27v74.8h99.3v-74.8h-27
	C171.7,335.3,170.3,333.9,170.3,332.1z"/>
<path class="st1" d="M200.4,335.3h-27c-1.7,0-3.1-1.4-3.1-3.1v-21.7h-19.7v99.7h49.8L200.4,335.3L200.4,335.3z"/>
<circle class="st0" cx="87.4" cy="265" r="15.6"/>
<circle class="st1" cx="214.1" cy="265" r="15.6"/>
<path class="st2" d="M152.5,330.1H149c-32.6,0-59-26.4-59-59v-53.9c0-32.6,26.4-59,59-59h3.5c32.6,0,59,26.4,59,59v53.9
	C211.5,303.7,185.1,330.1,152.5,330.1z"/>
<path class="st0" d="M152.5,158.3h-1.9v171.9h1.9c32.6,0,59-26.4,59-59v-53.9C211.5,184.7,185.1,158.3,152.5,158.3z"/>
<path class="st13" d="M205.1,178.2c-11.6-16.5-30.7-27.3-52.4-27.3h-3.8c-35.4,0-64.3,28.7-64.3,64.1v5v85.2h9.6v-66.6c0,0,0,0,0,0
	c28.5-2.9,56.6-8.5,81.2-20.8c8.9,10.2,19.1,19.2,30.4,26.6v60.7h11v-73.8v-16.3C216.7,201.3,212.4,188.6,205.1,178.2z"/>
<path class="st11" d="M205.1,178.2c-11.6-16.5-30.7-27.3-52.4-27.3h-2v76.8c8.5-2.7,16.8-6,24.7-9.9c8.9,10.2,19.1,19.2,30.4,26.6
	v60.7h11v-73.8v-16.3C216.7,201.3,212.4,188.6,205.1,178.2z"/>
<circle class="st5" cx="122.1" cy="258.1" r="6.1"/>
<circle class="st6" cx="179.4" cy="258.1" r="6.1"/>
<path class="st9" d="M150.8,307.9c-10.9,0-19.9-8.9-19.9-19.9c0-1.9,1.5-3.4,3.4-3.4c1.9,0,3.4,1.5,3.4,3.4
	c0,7.2,5.9,13.1,13.1,13.1s13.1-5.9,13.1-13.1c0-1.9,1.5-3.4,3.4-3.4c1.9,0,3.4,1.5,3.4,3.4C170.6,299,161.7,307.9,150.8,307.9z"/>
<path class="st10" d="M167.3,284.7c-1.9,0-3.4,1.5-3.4,3.4c0,7.2-5.9,13.1-13.1,13.1c0,0-0.1,0-0.1,0v6.7c0,0,0.1,0,0.1,0
	c10.9,0,19.8-8.9,19.8-19.9C170.6,286.2,169.1,284.7,167.3,284.7z"/>
<path class="st14" d="M204.7,335.3h-20.8c0,18.3-14.8,58.2-33.1,58.2c-18.3,0-33.1-39.9-33.1-58.2H96.9c-25.1,0-45.4,20.3-45.4,45.4
	V410c39.3,52.1,98.1,88.7,165.5,99c11.5-3.9,22.6-8.9,33.1-14.8V380.7C250.1,355.6,229.8,335.3,204.7,335.3z"/>
<path class="st3" d="M204.7,335.3h-20.8c0,18.3-14.8,58.2-33.1,58.2c0,0-0.1,0-0.1,0v95.9c30.4,13.8,64,21.7,99.4,22.5V380.7
	C250.1,355.6,229.8,335.3,204.7,335.3z"/>
<path class="st0" d="M268.4,420.6v-13.8h-24.8v13.8c0,1.1-0.9,2-2,2h-17.1V470h63v-47.5h-17.1C269.3,422.6,268.4,421.7,268.4,420.6z
	"/>
<path class="st1" d="M287.5,422.6h-17.1c-1.1,0-2-0.9-2-2v-13.8h-13V470h32.1L287.5,422.6z"/>
<circle class="st0" cx="214.8" cy="378" r="9.9"/>
<circle class="st1" cx="295.1" cy="378" r="9.9"/>
<path class="st2" d="M256.1,419.3h-2.2c-20.7,0-37.4-16.8-37.4-37.4v-34.2c0-20.7,16.8-37.4,37.4-37.4h2.2
	c20.7,0,37.4,16.8,37.4,37.4v34.2C293.5,402.5,276.7,419.3,256.1,419.3z"/>
<path class="st0" d="M256.1,310.3h-0.6v109h0.6c20.7,0,37.4-16.8,37.4-37.4v-34.2C293.5,327,276.7,310.3,256.1,310.3z"/>
<circle class="st5" cx="236.8" cy="373.6" r="3.9"/>
<circle class="st6" cx="273.1" cy="373.6" r="3.9"/>
<path class="st15" d="M290.2,422.6H277c0,11.6-21,22.9-21,22.9s-21-11.3-21-22.9h-13.2c-15.9,0-28.8,12.9-28.8,28.8v52.8
	c20.1,5.1,41.2,7.8,63,7.8c21.7,0,42.8-2.7,63-7.8v-52.8C319,435.4,306.1,422.6,290.2,422.6z"/>
<path class="st16" d="M290.2,422.6H277c0,11.6-21,22.9-21,22.9s-0.2-0.1-0.6-0.3V512c0.2,0,0.4,0,0.6,0c21.7,0,42.8-2.7,63-7.8
	v-52.8C319,435.4,306.1,422.6,290.2,422.6z"/>
<path class="st9" d="M254.9,405.2c-6.9,0-12.6-5.6-12.6-12.6c0-1.2,1-2.1,2.1-2.1c1.2,0,2.1,1,2.1,2.1c0,4.6,3.7,8.3,8.3,8.3
	s8.3-3.7,8.3-8.3c0-1.2,1-2.1,2.1-2.1c1.2,0,2.1,1,2.1,2.1C267.5,399.5,261.9,405.2,254.9,405.2z"/>
<g>
	<path class="st10" d="M267.5,392.6c0-1.2-1-2.1-2.1-2.1s-2.1,1-2.1,2.1c0,4.4-3.5,8-7.8,8.3v4.3
		C262.1,404.9,267.5,399.4,267.5,392.6z"/>
	<path class="st10" d="M225.7,335.2c0,0-1.9-23.9-38.5-33.8l-12.5,38.5L225.7,335.2z"/>
</g>
<g>
	<path class="st17" d="M286.3,335.2c0,0,1.9-23.9,38.5-33.8l12.5,38.5L286.3,335.2z"/>
	<path class="st17" d="M289.8,364.9V378h7v-21.4v-10.4c0-8.7-2.7-16.7-7.4-23.3c-7.3-10.5-19.5-17.3-33.3-17.3h-2.4
		c-22.4,0-40.6,18.2-40.6,40.6v3.1V378h6v-13.1L289.8,364.9L289.8,364.9L289.8,364.9z"/>
</g>
<path class="st18" d="M289.4,322.9c-7.3-10.5-19.5-17.3-33.3-17.3h-0.7v59.3h34.4V378h7v-21.4v-10.4
	C296.8,337.6,294,329.5,289.4,322.9z"/>
</svg>
