<?xml version="1.0" encoding="utf-8"?>
<!-- Generator: Adobe Illustrator 21.0.0, SVG Export Plug-In . SVG Version: 6.00 Build 0)  -->
<svg version="1.1" id="Layer_1" xmlns="http://www.w3.org/2000/svg" xmlns:xlink="http://www.w3.org/1999/xlink" x="0px" y="0px"
	 viewBox="0 0 512 512" style="enable-background:new 0 0 512 512;" xml:space="preserve">
<style type="text/css">
	.st0{fill:#D6CED1;}
	.st1{fill:#C2B8B9;}
	.st2{fill:#ECE7EA;}
</style>
<path class="st0" d="M469,398.4c4.3-4.5,6.7-10.5,6.7-16.8l0.7-260c0-6.7-2.9-12.8-7.5-17.1L258.2,238.4L47.5,104.5
	c-4.6,4.3-7.5,10.3-7.5,17.1v263.1c0,6.8,3,12.9,7.6,17.1l210.6-133.8l209,132.2L469,398.4z"/>
<path class="st1" d="M467.2,400.3L327.7,253.2h-139L47.6,401.9c4.1,3.8,9.6,6.1,15.7,6.1h378.2C450.6,408,459.6,405.3,467.2,400.3
	L467.2,400.3z"/>
<path class="st2" d="M63.3,98.3c-6.1,0-11.6,2.4-15.7,6.2l194.6,204.2c8.8,9.3,23.3,9.3,32.1,0l194.6-204.2
	c-4.2-3.8-9.7-6.2-15.7-6.2L63.3,98.3L63.3,98.3z"/>
</svg>
