<?xml version="1.0" encoding="utf-8"?>
<!-- Generator: Adobe Illustrator 21.0.0, SVG Export Plug-In . SVG Version: 6.00 Build 0)  -->
<svg version="1.1" id="Layer_1" xmlns="http://www.w3.org/2000/svg" xmlns:xlink="http://www.w3.org/1999/xlink" x="0px" y="0px"
	 viewBox="0 0 250 250" style="enable-background:new 0 0 250 250;" xml:space="preserve">
<style type="text/css">
	.st0{fill:#4D4D4D;}
</style>
<path class="st0" d="M240.3,118.3h-47.2c-1.4-13.8-6.8-26.4-15.2-36.6l24-24c2.6-2.6,2.6-6.9,0-9.5c-2.6-2.6-6.9-2.6-9.5,0l-24,24
	c-10.2-8.4-22.8-13.8-36.6-15.2V9.7c0-3.7-3-6.7-6.7-6.7s-6.7,3-6.7,6.7v47.2c-13.8,1.4-26.4,6.8-36.6,15.2l-24-24
	c-2.6-2.6-6.9-2.6-9.5,0c-2.6,2.6-2.6,6.9,0,9.5l24,24c-8.4,10.2-13.8,22.8-15.2,36.6H9.7c-3.7,0-6.7,3-6.7,6.7c0,3.7,3,6.7,6.7,6.7
	h47.2c1.4,13.8,6.8,26.4,15.2,36.6l-24,24c-2.6,2.6-2.6,6.9,0,9.5c1.3,1.3,3,2,4.8,2c1.7,0,3.4-0.7,4.8-2l24-24
	c10.2,8.4,22.8,13.8,36.6,15.2v47.2c0,3.7,3,6.7,6.7,6.7s6.7-3,6.7-6.7v-47.2c13.8-1.4,26.4-6.8,36.6-15.2l24,24c1.3,1.3,3,2,4.8,2
	s3.4-0.7,4.8-2c2.6-2.6,2.6-6.9,0-9.5l-24-24c8.4-10.2,13.8-22.8,15.2-36.6h47.2c3.7,0,6.7-3,6.7-6.7
	C247,121.3,244,118.3,240.3,118.3z M125,179.9c-30.3,0-54.9-24.6-54.9-54.9c0-30.3,24.6-54.9,54.9-54.9c30.3,0,54.9,24.6,54.9,54.9
	C179.9,155.3,155.3,179.9,125,179.9z"/>
</svg>
