<?xml version="1.0" encoding="utf-8"?>
<!-- Generator: Adobe Illustrator 21.0.0, SVG Export Plug-In . SVG Version: 6.00 Build 0)  -->
<svg version="1.1" id="Layer_1" xmlns="http://www.w3.org/2000/svg" xmlns:xlink="http://www.w3.org/1999/xlink" x="0px" y="0px"
	 viewBox="0 0 250 250" style="enable-background:new 0 0 250 250;" xml:space="preserve">
<style type="text/css">
	.st0{fill:#4D4D4D;}
</style>
<path class="st0" d="M241.2,86.5h-20.7c-0.9-5.5-3.1-10.6-6.2-15l10.1-10.1c2.3-2.3,2.3-5.9,0-8.2c-2.3-2.3-5.9-2.3-8.2,0L206,63.3
	c-4.4-3.1-9.5-5.3-15-6.2V36.4c0-3.2-2.6-5.8-5.8-5.8c-3.2,0-5.8,2.6-5.8,5.8v20.7c-5.5,0.9-10.6,3.1-15,6.2l-10.1-10.1
	c-2.3-2.3-5.9-2.3-8.2,0c-2.3,2.3-2.3,5.9,0,8.2l10.1,10.1c-2.4,3.4-4.3,7.2-5.4,11.3c-4.3,0.8-8.4,2.1-12.2,4.2
	c-9.9-14.3-26.2-23-43.9-23c-29.4,0-53.3,23.9-53.3,53.3c0,2.9,0.2,5.8,0.7,8.7C21.5,126.9,5,144,5,164.8
	c0,21.4,17.4,38.8,38.8,38.8h142.4c21.4,0,38.8-17.4,38.8-38.8c0-16.3-10.3-30.8-25.2-36.4c0.1-1.2,0.2-2.4,0.2-3.7
	c2.1-1,4.1-2.1,6-3.5l10.1,10.1c1.1,1.1,2.6,1.7,4.1,1.7c1.5,0,3-0.6,4.1-1.7c2.3-2.3,2.3-5.9,0-8.2l-10.1-10.1
	c3.1-4.4,5.3-9.5,6.2-15h20.7c3.2,0,5.8-2.6,5.8-5.8C247,89.1,244.4,86.5,241.2,86.5z M213.5,164.8c0,15-12.2,27.2-27.2,27.2H43.8
	c-15,0-27.2-12.2-27.2-27.2s12.2-27.2,27.2-27.2h13.7l-2.4-7.6c-1.3-4.1-2-8.4-2-12.7c0-23,18.7-41.7,41.7-41.7
	c15.5,0,29.6,8.5,36.8,22.2l3.2,6l5.4-4.1c2.9-2.2,6.1-3.7,9.4-4.7c2.8-0.8,5.7-1.3,8.7-1.3c1,0,2,0.1,3,0.2
	c12.7,1.2,23.1,10.4,26.2,22.4c0.6,2.4,1,5,1,7.6c0,1.3-0.1,2.7-0.3,4.1c-0.2,1.1-0.3,2.2-0.6,3.2l-1.5,5.8l5.9,1.3
	C204.4,140.9,213.5,152.1,213.5,164.8z M198.5,112.5c-4.5-16-18.3-28-35.2-30.1c3.8-8.3,12.2-14.2,21.9-14.2
	c13.3,0,24.1,10.8,24.1,24.1C209.4,100.7,205,108.1,198.5,112.5z"/>
</svg>
