<?xml version="1.0" encoding="utf-8"?>
<!-- Generator: Adobe Illustrator 21.0.0, SVG Export Plug-In . SVG Version: 6.00 Build 0)  -->
<svg version="1.1" id="Layer_1" xmlns="http://www.w3.org/2000/svg" xmlns:xlink="http://www.w3.org/1999/xlink" x="0px" y="0px"
	 viewBox="0 0 250 250" style="enable-background:new 0 0 250 250;" xml:space="preserve">
<style type="text/css">
	.st0{fill:#4D4D4D;}
</style>
<path class="st0" d="M247,110.8c0-27-22-49-49-49c-16.7,0-31.5,8.4-40.3,21.2c-0.5,0-0.9-0.1-1.4-0.1c-6.8,0-13.5,1.7-19.4,4.9
	c-9.8-14.1-25.8-22.7-43.3-22.7c-29,0-52.6,23.6-52.6,52.6c0,2.9,0.2,5.8,0.7,8.6C21.3,127.2,5,144,5,164.6
	c0,21.1,17.2,38.3,38.3,38.3h140.5c21.1,0,38.3-17.2,38.3-38.3c0-3.5-0.6-7-1.5-10.3C236.2,146.1,247,129.7,247,110.8z M210.6,164.6
	c0,14.8-12,26.8-26.8,26.8H43.3c-14.8,0-26.8-12-26.8-26.8c0-14.8,12-26.8,26.8-26.8h13.5l-2.4-7.5c-1.3-4.1-2-8.3-2-12.6
	c0-22.7,18.5-41.1,41.1-41.1c15.2,0,29.2,8.4,36.3,21.9l3.1,5.9l5.4-4c4-3,8.5-4.9,13.3-5.6c1.5-0.2,3-0.4,4.5-0.4
	c2.6,0,5.1,0.4,7.5,1c12.8,3.3,22.2,15,22.2,28.8c0,2.3-0.3,4.8-0.9,7.2l-1.4,5.7l5.8,1.2c6.2,1.3,11.5,4.8,15.2,9.4
	c2.5,3.1,4.2,6.7,5.1,10.6C210.3,160.4,210.6,162.4,210.6,164.6z M215.8,143.9c-4.4-6.8-10.9-12.3-18.7-15.2
	c0.2-1.5,0.3-3.1,0.3-4.6c0-17.8-11.3-32.9-27.1-38.7c6.9-7.5,16.7-12.2,27.6-12.2c20.7,0,37.6,16.9,37.6,37.6
	C235.5,125.1,227.6,137.5,215.8,143.9z"/>
</svg>
