<?xml version="1.0" encoding="utf-8"?>
<!-- Generator: Adobe Illustrator 21.0.0, SVG Export Plug-In . SVG Version: 6.00 Build 0)  -->
<svg version="1.1" id="Layer_1" xmlns="http://www.w3.org/2000/svg" xmlns:xlink="http://www.w3.org/1999/xlink" x="0px" y="0px"
	 viewBox="0 0 250 250" style="enable-background:new 0 0 250 250;" xml:space="preserve">
<style type="text/css">
	.st0{fill:#4D4D4D;}
</style>
<path class="st0" d="M204.3,196.4H47.7C24.2,196.4,5,177.2,5,153.7C5,130.8,23.2,112,45.9,111c-0.5-3.2-0.8-6.4-0.8-9.6
	c0-32.3,26.3-58.6,58.6-58.6c19.4,0,37.3,9.5,48.2,25.3c6.6-3.6,14-5.4,21.6-5.4c25.3,0,46,20.6,46,46c0,1.7-0.1,3.4-0.3,5.1
	c16.4,6.2,27.8,22.1,27.8,40C247,177.2,227.8,196.4,204.3,196.4z M47.7,123.8c-16.5,0-29.9,13.4-29.9,29.9s13.4,29.9,29.9,29.9
	h156.6c16.5,0,29.9-13.4,29.9-29.9c0-14-9.9-26.3-23.6-29.2l-6.5-1.4l1.6-6.4c0.7-2.7,1-5.4,1-8c0-18.3-14.9-33.2-33.2-33.2
	c-7.2,0-14.1,2.3-19.9,6.6l-6,4.5l-3.5-6.6c-8-15-23.5-24.4-40.5-24.4c-25.3,0-45.9,20.6-45.9,45.9c0,4.7,0.7,9.5,2.2,14l2.7,8.3
	H47.7z"/>
</svg>
