<?xml version="1.0" encoding="utf-8"?>
<!-- Generator: Adobe Illustrator 21.0.0, SVG Export Plug-In . SVG Version: 6.00 Build 0)  -->
<svg version="1.1" id="Layer_1" xmlns="http://www.w3.org/2000/svg" xmlns:xlink="http://www.w3.org/1999/xlink" x="0px" y="0px"
	 viewBox="0 0 374 250" style="enable-background:new 0 0 374 250;" xml:space="preserve">
<style type="text/css">
	.st0{fill:#4D4D4D;}
</style>
<path class="st0" d="M305.2,240H68.7c-35.5,0-64.5-29-64.5-64.5c0-34.6,27.5-63,61.8-64.5c-0.8-4.8-1.2-9.7-1.2-14.5
	C64.7,47.7,104.5,8,153.3,8c29.3,0,56.3,14.3,72.8,38.2c10-5.4,21.1-8.2,32.6-8.2c38.2,0,69.5,31.1,69.5,69.5c0,2.6-0.2,5.1-0.5,7.7
	c24.8,9.4,42,33.4,42,60.4C369.7,211,340.7,240,305.2,240z M68.7,130.3c-24.9,0-45.2,20.2-45.2,45.2s20.2,45.2,45.2,45.2h236.5
	c24.9,0,45.2-20.2,45.2-45.2c0-21.1-15-39.7-35.6-44.1l-9.8-2.1l2.4-9.7c1.1-4.1,1.5-8.2,1.5-12.1c0-27.6-22.5-50.1-50.1-50.1
	c-10.9,0-21.3,3.5-30.1,10l-9.1,6.8l-5.3-10c-12.1-22.7-35.5-36.9-61.2-36.9c-38.2,0-69.3,31.1-69.3,69.3c0,7.1,1.1,14.3,3.3,21.1
	l4.1,12.5H68.7z"/>
</svg>
