<?xml version="1.0" encoding="utf-8"?>
<!-- Generator: Adobe Illustrator 21.0.0, SVG Export Plug-In . SVG Version: 6.00 Build 0)  -->
<svg version="1.1" id="Layer_1" xmlns="http://www.w3.org/2000/svg" xmlns:xlink="http://www.w3.org/1999/xlink" x="0px" y="0px"
	 viewBox="0 0 394 250" style="enable-background:new 0 0 394 250;" xml:space="preserve">
<style type="text/css">
	.st0{fill:#4D4D4D;}
</style>
<path class="st0" d="M323,241.8H79.4c-36.6,0-66.4-29.9-66.4-66.4c0-35.6,28.3-64.9,63.6-66.4c-0.8-5-1.2-10-1.2-14.9
	c0-50.2,40.9-91.2,91.2-91.2c30.2,0,58,14.8,75,39.4c10.3-5.6,21.8-8.4,33.6-8.4c39.4,0,71.6,32,71.6,71.6c0,2.6-0.2,5.3-0.5,7.9
	c25.5,9.6,43.2,34.4,43.2,62.2C389.4,211.9,359.6,241.8,323,241.8z M79.4,128.8c-25.7,0-46.5,20.8-46.5,46.5s20.8,46.5,46.5,46.5
	H323c25.7,0,46.5-20.8,46.5-46.5c0-21.8-15.4-40.9-36.7-45.4l-10.1-2.2l2.5-10c1.1-4.2,1.6-8.4,1.6-12.4c0-28.5-23.2-51.6-51.6-51.6
	c-11.2,0-21.9,3.6-31,10.3l-9.3,7l-5.4-10.3c-12.4-23.3-36.6-38-63-38C127,22.8,95,54.8,95,94.2c0,7.3,1.1,14.8,3.4,21.8l4.2,12.9
	H79.4z"/>
</svg>
