<?xml version="1.0" encoding="utf-8"?>
<!-- Generator: Adobe Illustrator 21.0.0, SVG Export Plug-In . SVG Version: 6.00 Build 0)  -->
<svg version="1.1" id="Layer_1" xmlns="http://www.w3.org/2000/svg" xmlns:xlink="http://www.w3.org/1999/xlink" x="0px" y="0px"
	 viewBox="0 0 250 250" style="enable-background:new 0 0 250 250;" xml:space="preserve">
<style type="text/css">
	.st0{fill:#4D4D4D;}
</style>
<g>
	<path class="st0" d="M219.3,77.2c0.2-1.7,0.3-3.4,0.3-5.1c0-25.3-20.6-46-46-46c-7.6,0-15,1.9-21.6,5.4
		c-10.9-15.8-28.8-25.3-48.2-25.3c-32.3,0-58.6,26.3-58.6,58.6c0,3.2,0.3,6.4,0.8,9.6C23.2,75.5,5,94.3,5,117.2
		c0,23.5,19.2,42.7,42.7,42.7h156.6c23.5,0,42.7-19.2,42.7-42.7C247,99.3,235.6,83.4,219.3,77.2z M204.3,147.1H47.7
		c-16.5,0-29.9-13.4-29.9-29.9s13.4-29.9,29.9-29.9h15l-2.7-8.3c-1.5-4.5-2.2-9.3-2.2-14c0-25.3,20.6-45.9,45.9-45.9
		c17,0,32.5,9.3,40.5,24.4l3.5,6.6l6-4.5c5.8-4.3,12.7-6.6,19.9-6.6c18.3,0,33.2,14.9,33.2,33.2c0,2.6-0.3,5.3-1,8l-1.6,6.4l6.5,1.4
		c13.7,2.9,23.6,15.2,23.6,29.2C234.2,133.7,220.8,147.1,204.3,147.1z"/>
	<path class="st0" d="M57.2,170.5c-3.5,0-6.4,2.9-6.4,6.4v40.6c0,3.5,2.9,6.4,6.4,6.4c3.5,0,6.4-2.9,6.4-6.4v-40.6
		C63.5,173.3,60.7,170.5,57.2,170.5z"/>
	<path class="st0" d="M113.2,170.5c-3.5,0-6.4,2.9-6.4,6.4v40.6c0,3.5,2.9,6.4,6.4,6.4c3.5,0,6.4-2.9,6.4-6.4v-40.6
		C119.5,173.3,116.7,170.5,113.2,170.5z"/>
	<path class="st0" d="M141.2,170.5c-3.5,0-6.4,2.9-6.4,6.4v62.4c0,3.5,2.9,6.4,6.4,6.4c3.5,0,6.4-2.9,6.4-6.4v-62.4
		C147.5,173.3,144.7,170.5,141.2,170.5z"/>
	<path class="st0" d="M85.2,170.5c-3.5,0-6.4,2.9-6.4,6.4v62.4c0,3.5,2.9,6.4,6.4,6.4c3.5,0,6.4-2.9,6.4-6.4v-62.4
		C91.5,173.3,88.7,170.5,85.2,170.5z"/>
	<path class="st0" d="M169.1,170.5c-3.5,0-6.4,2.9-6.4,6.4v40.6c0,3.5,2.9,6.4,6.4,6.4s6.4-2.9,6.4-6.4v-40.6
		C175.5,173.3,172.7,170.5,169.1,170.5z"/>
	<path class="st0" d="M195.4,170.5c-3.5,0-6.4,2.9-6.4,6.4v20.3c0,3.5,2.9,6.4,6.4,6.4c3.5,0,6.4-2.9,6.4-6.4v-20.3
		C201.8,173.3,198.9,170.5,195.4,170.5z"/>
</g>
</svg>
