<?xml version="1.0" encoding="utf-8"?>
<!-- Generator: Adobe Illustrator 21.0.0, SVG Export Plug-In . SVG Version: 6.00 Build 0)  -->
<svg version="1.1" id="Layer_1" xmlns="http://www.w3.org/2000/svg" xmlns:xlink="http://www.w3.org/1999/xlink" x="0px" y="0px"
	 viewBox="0 0 250 250" style="enable-background:new 0 0 250 250;" xml:space="preserve">
<style type="text/css">
	.st0{fill:#4D4D4D;}
</style>
<g>
	<path class="st0" d="M247,68.1c0-14.9-5.8-28.9-16.4-39.5c-7.6-7.6-17.2-12.8-27.7-15.1l-12-2.6l5.1,11.2
		c4.6,10.1,4.5,21.5,0.3,31.3c-7.4-5.7-16.7-9.1-26.8-9.1c-7.3,0-14.4,1.8-20.8,5.2c-10.5-15.2-27.7-24.4-46.4-24.4
		c-31.1,0-56.5,25.3-56.5,56.5c0,3.1,0.3,6.2,0.8,9.2c-21.9,0.9-39.4,19-39.4,41.1c0,22.7,18.4,41.1,41.1,41.1h150.8
		c22.7,0,41.1-18.4,41.1-41.1c0-9.4-3.3-18.2-8.9-25.3C241.4,96.3,247,82.7,247,68.1z M199.1,160.9H48.3
		c-15.9,0-28.8-12.9-28.8-28.8c0-15.9,12.9-28.8,28.8-28.8h14.5l-2.6-8c-1.4-4.4-2.1-8.9-2.1-13.5c0-24.4,19.8-44.2,44.2-44.2
		c16.4,0,31.3,9,39,23.5l3.4,6.3l5.7-4.3c5.6-4.2,12.2-6.4,19.1-6.4c7.6,0,14.6,2.7,20.1,7.2c3.2,2.6,6,5.9,8,9.6
		c2.5,4.5,3.9,9.7,3.9,15.2c0,2.5-0.3,5.1-1,7.7l-1.5,6.2l6.2,1.3c2.4,0.5,4.6,1.4,6.7,2.5c4,2,7.4,4.8,10.1,8.3
		c3.7,4.9,6,10.9,6,17.4C228,147.9,215,160.9,199.1,160.9z M222.5,98.4c-2.8-1.9-5.7-3.6-8.9-4.8c0.2-1.7,0.3-3.3,0.3-4.9
		c0-9.6-3.1-18.5-8.4-25.8c5.6-10.1,7.7-21.9,5.7-33.4c4,2,7.6,4.7,10.8,7.9c8.2,8.2,12.8,19.2,12.8,30.8
		C234.7,79.5,230.3,90.2,222.5,98.4z"/>
	<path class="st0" d="M160,183.2c-3.4,0-6.2,2.8-6.2,6.2v9.8c0,3.4,2.8,6.2,6.2,6.2c3.4,0,6.2-2.8,6.2-6.2v-9.8
		C166.2,186,163.4,183.2,160,183.2z"/>
	<path class="st0" d="M160,211.5c-3.4,0-6.2,2.9-6.2,6.3c0,3.4,2.8,6.2,6.2,6.2c3.4,0,6.2-2.8,6.2-6.2v-0.3
		C166.2,214.2,163.4,211.5,160,211.5z"/>
	<path class="st0" d="M160,229.3c-3.4,0-6.2,2.9-6.2,6.3c0,3.4,2.8,6.2,6.2,6.2c3.4,0,6.2-2.8,6.2-6.2v-0.3
		C166.2,231.9,163.4,229.3,160,229.3z"/>
	<path class="st0" d="M56.2,211.5c-3.4,0-6.2,2.9-6.2,6.3c0,3.4,2.8,6.2,6.2,6.2c3.4,0,6.2-2.8,6.2-6.2v-0.3
		C62.3,214.2,59.6,211.5,56.2,211.5z"/>
	<path class="st0" d="M106.1,183.2c-3.4,0-6.2,2.8-6.2,6.2v9.8c0,3.4,2.8,6.2,6.2,6.2c3.4,0,6.2-2.8,6.2-6.2v-9.8
		C112.3,186,109.5,183.2,106.1,183.2z"/>
	<path class="st0" d="M80.2,184.3c-3.4,0-6.2,2.8-6.2,6.2v18.5c0,3.4,2.8,6.2,6.2,6.2c3.4,0,6.2-2.8,6.2-6.2v-18.5
		C86.3,187.1,83.6,184.3,80.2,184.3z"/>
	<path class="st0" d="M186.6,183.2c-3.4,0-6.2,2.8-6.2,6.2v5.9c0,3.4,2.8,6.2,6.2,6.2c3.4,0,6.2-2.8,6.2-6.2v-5.9
		C192.8,186,190,183.2,186.6,183.2z"/>
	<path class="st0" d="M56.2,183.2c-3.4,0-6.2,2.8-6.2,6.2v11.9c0,3.4,2.8,6.2,6.2,6.2c3.4,0,6.2-2.8,6.2-6.2v-11.9
		C62.3,186,59.6,183.2,56.2,183.2z"/>
	<path class="st0" d="M133.4,183.2c-3.4,0-6.2,2.8-6.2,6.2v19.6c0,3.4,2.8,6.2,6.2,6.2c3.4,0,6.2-2.8,6.2-6.2v-19.6
		C139.6,186,136.8,183.2,133.4,183.2z"/>
</g>
</svg>
