<?xml version="1.0" encoding="utf-8"?>
<!-- Generator: Adobe Illustrator 21.0.0, SVG Export Plug-In . SVG Version: 6.00 Build 0)  -->
<svg version="1.1" id="Layer_1" xmlns="http://www.w3.org/2000/svg" xmlns:xlink="http://www.w3.org/1999/xlink" x="0px" y="0px"
	 viewBox="0 0 250 250" style="enable-background:new 0 0 250 250;" xml:space="preserve">
<style type="text/css">
	.st0{fill:#4D4D4D;}
</style>
<g>
	<path class="st0" d="M219.5,84.4c0.2-1.7,0.3-3.4,0.3-5.1c0-25.1-20.5-45.6-45.6-45.6c-7.6,0-14.9,1.8-21.5,5.4
		c-10.8-15.6-28.6-25.1-47.8-25.1c-32.1,0-58.2,26.1-58.2,58.2c0,3.2,0.3,6.4,0.8,9.5C25,82.7,7,101.3,7,124.1
		c0,23.4,19,42.3,42.3,42.3h155.3c23.3,0,42.3-19,42.3-42.3C247,106.3,235.7,90.5,219.5,84.4z M204.7,153.7H49.3
		c-16.4,0-29.7-13.3-29.7-29.7S33,94.4,49.3,94.4h14.9l-2.6-8.3c-1.4-4.5-2.2-9.2-2.2-13.9c0-25.1,20.4-45.5,45.5-45.5
		c16.9,0,32.3,9.3,40.2,24.2l3.5,6.5l5.9-4.4c5.8-4.3,12.6-6.6,19.7-6.6c18.1,0,32.9,14.8,32.9,32.9c0,2.6-0.3,5.3-1,8l-1.6,6.4
		l6.4,1.4c13.6,2.9,23.4,15.1,23.4,29C234.3,140.4,221,153.7,204.7,153.7z"/>
	<path class="st0" d="M98.8,196.7H87.1l7.2-13.5c1.6-3.1,0.5-6.9-2.6-8.6c-3.1-1.6-6.9-0.5-8.6,2.6L71,200.1c-1,2-1,4.3,0.2,6.2
		c1.1,1.9,3.2,3.1,5.4,3.1h11.7l-8.7,16.7c-1.6,3.1-0.4,6.9,2.7,8.6c0.9,0.5,1.9,0.7,2.9,0.7c2.3,0,4.5-1.2,5.6-3.4l13.6-26
		c1-2,1-4.3-0.2-6.2C103,197.9,101,196.7,98.8,196.7z"/>
	<path class="st0" d="M138.1,196.7h-11.7l7.2-13.5c1.6-3.1,0.5-6.9-2.6-8.6c-3.1-1.6-6.9-0.5-8.6,2.6l-12.1,22.8c-1,2-1,4.3,0.2,6.2
		c1.1,1.9,3.2,3.1,5.4,3.1h11.7l-8.7,16.7c-1.6,3.1-0.4,6.9,2.7,8.6c0.9,0.5,1.9,0.7,2.9,0.7c2.3,0,4.5-1.2,5.6-3.4l13.6-26
		c1-2,1-4.3-0.2-6.2C142.4,197.9,140.3,196.7,138.1,196.7z"/>
	<path class="st0" d="M177.4,196.7h-11.7l7.2-13.5c1.6-3.1,0.5-6.9-2.6-8.6c-3.1-1.6-6.9-0.5-8.6,2.6l-12.1,22.8c-1,2-1,4.3,0.2,6.2
		c1.1,1.9,3.2,3.1,5.4,3.1h11.7l-8.7,16.7c-1.6,3.1-0.4,6.9,2.7,8.6c0.9,0.5,1.9,0.7,2.9,0.7c2.3,0,4.5-1.2,5.6-3.4l13.6-26
		c1-2,1-4.3-0.2-6.2C181.7,197.9,179.6,196.7,177.4,196.7z"/>
</g>
</svg>
