<?xml version="1.0" encoding="utf-8"?>
<!-- Generator: Adobe Illustrator 21.0.0, SVG Export Plug-In . SVG Version: 6.00 Build 0)  -->
<svg version="1.1" id="Layer_1" xmlns="http://www.w3.org/2000/svg" xmlns:xlink="http://www.w3.org/1999/xlink" x="0px" y="0px"
	 viewBox="0 0 250 250" style="enable-background:new 0 0 250 250;" xml:space="preserve">
<style type="text/css">
	.st0{fill:#4D4D4D;}
</style>
<path class="st0" d="M225.6,176.1l-29-16.7c1.8-2,4-3.6,6.5-4.1c4.4-0.8,8.4,2.3,8.6,2.4c2.9,2.4,7.2,2,9.6-0.8
	c2.5-2.9,2.1-7.2-0.8-9.7c-0.9-0.8-9-7.3-19.7-5.5c-6.2,1.1-11.6,4.7-16.3,10.7l-11.1-6.4l1.1-1.9c1.9-3.3,0.8-7.5-2.5-9.4
	c-3.3-1.9-7.5-0.8-9.4,2.5l-1.1,1.9l-22.2-12.8l22.2-12.8l1.1,1.9c1.3,2.2,3.6,3.4,6,3.4c1.2,0,2.3-0.3,3.4-0.9
	c3.3-1.9,4.4-6.1,2.5-9.4l-1.1-1.9l11-6.4c4.7,6,10.1,9.6,16.3,10.7c1.3,0.2,2.6,0.3,3.8,0.3c8.8,0,15.1-5.1,15.9-5.8
	c2.9-2.5,3.2-6.8,0.8-9.7c-2.5-2.9-6.8-3.2-9.7-0.8c0,0-4,3.1-8.4,2.4c-2.5-0.4-4.7-2.1-6.6-4.1l29-16.7c3.3-1.9,4.4-6.1,2.5-9.4
	c-1.9-3.3-6.1-4.4-9.4-2.5l-29,16.7c-0.8-2.6-1.1-5.3-0.3-7.7c1.5-4.2,6.2-6.1,6.4-6.2c3.5-1.3,5.4-5.2,4.1-8.7
	c-1.3-3.6-5.2-5.4-8.8-4.2c-1.1,0.4-10.8,4.1-14.6,14.3c-2.2,5.9-1.8,12.4,1.1,19.5l-11.1,6.4l-1.1-1.9c-1.9-3.3-6.1-4.4-9.4-2.5
	c-3.3,1.9-4.4,6.1-2.5,9.4l1.1,1.9l-22.2,12.8V88.8h2.2c3.8,0,6.9-3.1,6.9-6.9c0-3.8-3.1-6.9-6.9-6.9h-2.2V62.2
	c7.5-1.1,13.4-3.9,17.4-8.8c6.9-8.3,5.3-18.6,5.1-19.8c-0.7-3.7-4.2-6.1-7.9-5.5c-3.7,0.6-6.2,4.2-5.6,7.9c0,0.1,0.8,5.2-2.2,8.6
	c-1.6,1.9-4.1,2.9-6.8,3.5V14.9c0-3.8-3.1-6.9-6.9-6.9c-3.8,0-6.9,3.1-6.9,6.9v33.4c-2.7-0.6-5.2-1.6-6.8-3.5
	c-2.9-3.4-2.2-8.4-2.2-8.6c0.6-3.7-1.8-7.3-5.5-7.9c-3.7-0.7-7.3,1.8-8,5.5c-0.2,1.1-1.9,11.4,5.1,19.8c4,4.8,9.9,7.7,17.4,8.8V75
	h-2.2c-3.8,0-6.9,3.1-6.9,6.9c0,3.8,3.1,6.9,6.9,6.9h2.2v25.7l-22.2-12.8l1.1-1.9c1.9-3.3,0.8-7.5-2.5-9.4c-3.3-1.9-7.5-0.8-9.4,2.5
	l-1.1,1.9l-11.1-6.4c2.9-7,3.2-13.6,1.1-19.5C70.9,58.7,61.1,55,60,54.6c-3.6-1.3-7.5,0.6-8.8,4.2c-1.3,3.6,0.6,7.5,4.2,8.8
	c0,0,4.7,1.9,6.3,6.1c0.9,2.4,0.6,5.1-0.3,7.7l-29-16.7c-3.3-1.9-7.5-0.8-9.4,2.5c-1.9,3.3-0.8,7.5,2.5,9.4l29,16.7
	c-1.8,2-4,3.6-6.5,4.1c-4.4,0.8-8.4-2.3-8.6-2.4c-2.9-2.4-7.2-2.1-9.6,0.8c-2.5,2.9-2.1,7.2,0.8,9.7c0.8,0.7,7.1,5.8,15.9,5.8
	c1.2,0,2.5-0.1,3.8-0.3c6.2-1.1,11.6-4.7,16.3-10.7l11.1,6.4l-1.1,1.9c-1.9,3.3-0.8,7.5,2.5,9.4c1.1,0.6,2.3,0.9,3.4,0.9
	c2.4,0,4.7-1.2,6-3.4l1.1-1.9l22.2,12.8l-22.2,12.8l-1.1-1.9c-1.9-3.3-6.1-4.4-9.4-2.5c-3.3,1.9-4.4,6.1-2.5,9.4l1.1,1.9l-11.1,6.4
	c-4.7-6-10.1-9.6-16.3-10.7c-10.7-1.9-18.8,4.7-19.7,5.5c-2.9,2.5-3.2,6.8-0.8,9.7c2.5,2.9,6.8,3.2,9.7,0.8c0,0,4-3.1,8.4-2.4
	c2.5,0.4,4.7,2.1,6.6,4.1l-29,16.7c-3.3,1.9-4.4,6.1-2.5,9.4c1.3,2.2,3.6,3.4,6,3.4c1.2,0,2.3-0.3,3.4-0.9l29-16.7
	c0.8,2.6,1.1,5.3,0.3,7.7c-1.5,4.2-6.2,6.1-6.4,6.2c-3.5,1.3-5.4,5.2-4.1,8.8c1,2.8,3.6,4.6,6.5,4.6c0.8,0,1.5-0.1,2.3-0.4
	c1.1-0.4,10.8-4.1,14.6-14.3c2.2-5.9,1.8-12.4-1.1-19.5l11.1-6.4l1.1,1.9c1.3,2.2,3.6,3.4,6,3.4c1.2,0,2.3-0.3,3.4-0.9
	c3.3-1.9,4.4-6.1,2.5-9.4l-1.1-1.9l22.2-12.8v25.7h-2.2c-3.8,0-6.9,3.1-6.9,6.9c0,3.8,3.1,6.9,6.9,6.9h2.2v12.8
	c-7.5,1.1-13.4,3.9-17.4,8.8c-6.9,8.3-5.3,18.6-5.1,19.8c0.6,3.3,3.5,5.6,6.7,5.6c0.4,0,0.8,0,1.2-0.1c3.7-0.6,6.2-4.2,5.6-7.9
	c0-0.1-0.8-5.2,2.2-8.6c1.6-1.9,4.1-3,6.8-3.5v33.4c0,3.8,3.1,6.9,6.9,6.9c3.8,0,6.9-3.1,6.9-6.9v-33.4c2.6,0.6,5.1,1.6,6.8,3.5
	c2.9,3.4,2.2,8.4,2.2,8.6c-0.6,3.7,1.8,7.3,5.5,7.9c0.4,0.1,0.8,0.1,1.3,0.1c3.3,0,6.1-2.3,6.8-5.6c0.2-1.1,1.9-11.4-5.1-19.8
	c-4-4.8-9.9-7.7-17.4-8.8v-12.8h2.2c3.8,0,6.9-3.1,6.9-6.9c0-3.8-3.1-6.9-6.9-6.9h-2.2v-25.7l22.2,12.8l-1.1,1.9
	c-1.9,3.3-0.8,7.5,2.5,9.4c1.1,0.6,2.3,0.9,3.4,0.9c2.4,0,4.7-1.2,6-3.4l1.1-1.9l11,6.4c-2.9,7-3.2,13.6-1.1,19.5
	c3.8,10.2,13.5,13.9,14.6,14.3c0.8,0.3,1.5,0.4,2.3,0.4c2.8,0,5.5-1.8,6.5-4.6c1.3-3.6-0.6-7.5-4.2-8.8c0,0-4.7-1.9-6.3-6.1
	c-0.9-2.4-0.6-5.1,0.3-7.7l29,16.7c1.1,0.6,2.3,0.9,3.4,0.9c2.4,0,4.7-1.2,6-3.4C230,182.2,228.8,178,225.6,176.1z"/>
</svg>
