<?xml version="1.0" encoding="utf-8"?>
<!-- Generator: Adobe Illustrator 21.0.0, SVG Export Plug-In . SVG Version: 6.00 Build 0)  -->
<svg version="1.1" id="Layer_1" xmlns="http://www.w3.org/2000/svg" xmlns:xlink="http://www.w3.org/1999/xlink" x="0px" y="0px"
	 viewBox="0 0 250 250" style="enable-background:new 0 0 250 250;" xml:space="preserve">
<style type="text/css">
	.st0{fill:#4D4D4D;}
</style>
<g>
	<path class="st0" d="M134.9,182.5H94.4c-3.5,0-6.3,2.8-6.3,6.3s2.8,6.3,6.3,6.3h40.6c3.5,0,6.3-2.8,6.3-6.3
		S138.4,182.5,134.9,182.5z"/>
	<path class="st0" d="M123.7,207.4H94.4c-3.5,0-6.3,2.8-6.3,6.3c0,3.5,2.8,6.3,6.3,6.3h29.3c3.5,0,6.3-2.8,6.3-6.3
		C130,210.3,127.2,207.4,123.7,207.4z"/>
	<path class="st0" d="M123.7,232.4H94.4c-3.5,0-6.3,2.8-6.3,6.3s2.8,6.3,6.3,6.3h29.3c3.5,0,6.3-2.8,6.3-6.3
		S127.2,232.4,123.7,232.4z"/>
	<path class="st0" d="M158.8,157.6h-51.9c-3.5,0-6.3,2.8-6.3,6.3c0,3.5,2.8,6.3,6.3,6.3h51.9c3.5,0,6.3-2.8,6.3-6.3
		C165.1,160.4,162.3,157.6,158.8,157.6z"/>
	<path class="st0" d="M171.6,132.6H94.4c-3.5,0-6.3,2.8-6.3,6.3c0,3.5,2.8,6.3,6.3,6.3h77.3c3.5,0,6.3-2.8,6.3-6.3
		C178,135.5,175.1,132.6,171.6,132.6z"/>
	<path class="st0" d="M189,107.7h-85.6c-3.5,0-6.3,2.8-6.3,6.3s2.8,6.3,6.3,6.3H189c3.5,0,6.3-2.8,6.3-6.3S192.5,107.7,189,107.7z"
		/>
	<path class="st0" d="M94.4,95.4h80.5c3.5,0,6.3-2.8,6.3-6.3c0-3.5-2.8-6.3-6.3-6.3H94.4c-3.5,0-6.3,2.8-6.3,6.3
		C88,92.6,90.9,95.4,94.4,95.4z"/>
	<path class="st0" d="M223.2,57.9H103.4c-3.5,0-6.3,2.8-6.3,6.3s2.8,6.3,6.3,6.3h119.8c3.5,0,6.3-2.8,6.3-6.3S226.6,57.9,223.2,57.9
		z"/>
	<path class="st0" d="M195.3,39.3c0-3.5-2.8-6.3-6.3-6.3H58.3c-3.5,0-6.3,2.8-6.3,6.3c0,3.5,2.8,6.3,6.3,6.3H189
		C192.5,45.6,195.3,42.7,195.3,39.3z"/>
	<path class="st0" d="M169.2,14.3c0-3.5-2.8-6.3-6.3-6.3h-140c-3.5,0-6.3,2.8-6.3,6.3c0,3.5,2.8,6.3,6.3,6.3h140
		C166.3,20.6,169.2,17.8,169.2,14.3z"/>
</g>
</svg>
