<?xml version="1.0" encoding="utf-8"?>
<!-- Generator: Adobe Illustrator 21.0.0, SVG Export Plug-In . SVG Version: 6.00 Build 0)  -->
<svg version="1.1" id="Layer_1" xmlns="http://www.w3.org/2000/svg" xmlns:xlink="http://www.w3.org/1999/xlink" x="0px" y="0px"
	 viewBox="0 0 512 512" style="enable-background:new 0 0 512 512;" xml:space="preserve">
<style type="text/css">
	.st0{fill:#4D4D4D;stroke:#4D4D4D;stroke-width:8;stroke-miterlimit:10;}
</style>
<g>
	<g>
		<g>
			<path class="st0" d="M42.7,187.7h273.1c4.7,0,8.5-3.8,8.5-8.5s-3.8-8.5-8.5-8.5H42.7c-4.7,0-8.5,3.8-8.5,8.5
				S37.9,187.7,42.7,187.7z"/>
			<path class="st0" d="M247.5,273.1H59.7c-4.7,0-8.5,3.8-8.5,8.5s3.8,8.5,8.5,8.5h187.7c4.7,0,8.5-3.8,8.5-8.5
				C256,276.9,252.2,273.1,247.5,273.1z"/>
			<path class="st0" d="M126.5,230.4c0-4.7-3.8-8.5-8.5-8.5H15.5c-4.7,0-8.5,3.8-8.5,8.5c0,4.7,3.8,8.5,8.5,8.5h102.4
				C122.7,238.9,126.5,235.1,126.5,230.4z"/>
			<path class="st0" d="M93.9,136.5h119.5c4.7,0,8.5-3.8,8.5-8.5c0-4.7-3.8-8.5-8.5-8.5H93.9c-4.7,0-8.5,3.8-8.5,8.5
				C85.3,132.7,89.1,136.5,93.9,136.5z"/>
			<path class="st0" d="M238.9,128c0,4.7,3.8,8.5,8.5,8.5h187.7c4.7,0,8.5-3.8,8.5-8.5c0-4.7-3.8-8.5-8.5-8.5H247.5
				C242.7,119.5,238.9,123.3,238.9,128z"/>
			<path class="st0" d="M349.9,170.7c-4.7,0-8.5,3.8-8.5,8.5s3.8,8.5,8.5,8.5h68.3c4.7,0,8.5-3.8,8.5-8.5s-3.8-8.5-8.5-8.5H349.9z"
				/>
			<path class="st0" d="M179.2,85.3h221.9c4.7,0,8.5-3.8,8.5-8.5s-3.8-8.5-8.5-8.5H179.2c-4.7,0-8.5,3.8-8.5,8.5
				S174.5,85.3,179.2,85.3z"/>
			<path class="st0" d="M469.3,273.1H281.6c-4.7,0-8.5,3.8-8.5,8.5s3.8,8.5,8.5,8.5h187.7c4.7,0,8.5-3.8,8.5-8.5
				C477.9,276.9,474.1,273.1,469.3,273.1z"/>
			<path class="st0" d="M423.1,375.5H252.5c-4.7,0-8.5,3.8-8.5,8.5s3.8,8.5,8.5,8.5h170.7c4.7,0,8.5-3.8,8.5-8.5
				S427.9,375.5,423.1,375.5z"/>
			<path class="st0" d="M366.9,426.7H145.1c-4.7,0-8.5,3.8-8.5,8.5s3.8,8.5,8.5,8.5h221.9c4.7,0,8.5-3.8,8.5-8.5
				S371.7,426.7,366.9,426.7z"/>
			<path class="st0" d="M493.5,221.9l-332.8,0c-4.7,0-9.7,3.8-9.7,8.5c0,4.7,4.9,8.5,9.7,8.5h332.8c4.7,0,8.5-3.8,8.5-8.5
				S498.2,221.9,493.5,221.9z"/>
			<path class="st0" d="M93.9,324.3c-4.7,0-8.5,3.8-8.5,8.5s3.8,8.5,8.5,8.5h68.3c4.7,0,8.5-3.8,8.5-8.5s-3.8-8.5-8.5-8.5H93.9z"/>
			<path class="st0" d="M221.9,384c0-4.7-3.8-8.5-8.5-8.5H59.7c-4.7,0-8.5,3.8-8.5,8.5s3.8,8.5,8.5,8.5h153.6
				C218.1,392.5,221.9,388.7,221.9,384z"/>
			<path class="st0" d="M187.7,332.8c0,4.7,3.8,8.5,8.5,8.5H384c4.7,0,8.5-3.8,8.5-8.5s-3.8-8.5-8.5-8.5H196.3
				C191.5,324.3,187.7,328.1,187.7,332.8z"/>
		</g>
	</g>
</g>
</svg>
