<?xml version="1.0" encoding="utf-8"?>
<!-- Generator: Adobe Illustrator 21.0.0, SVG Export Plug-In . SVG Version: 6.00 Build 0)  -->
<svg version="1.1" id="Layer_1" xmlns="http://www.w3.org/2000/svg" xmlns:xlink="http://www.w3.org/1999/xlink" x="0px" y="0px"
	 viewBox="0 0 280 68" style="enable-background:new 0 0 280 68;" xml:space="preserve">
<style type="text/css">
	.st0{fill:#F9B835;}
	.st1{fill:#FFFEF5;}
	.st2{fill:#FFDF57;}
</style>
<g id="layer1">
	<path class="st0" d="M43.7,66.3C43.3,66,43,61,43,55.3V45h-3.2c-3.2,0-3.1-0.2,6.7-9.5c5.5-5.2,10.4-9.4,10.9-9.5
		c0.9,0,18.8,16.7,19.4,18.2C77,44.7,76,45,74.6,45h-2.5l-0.3,10.8l-0.3,10.7l-4.2,0.3L63,67.1v-7.5V52h-5.5H52v7.5V67h-3.8
		C46.1,67,44,66.7,43.7,66.3z"/>
</g>
<g id="layer2">
	<path class="st1" d="M124.9,65.1l-2.9-2.9V43.6V25h2.5c2.4,0,2.5,0.3,2.5,5.9v6l3.4-0.6c4.5-0.7,8.1,0.2,10.6,2.7
		c1.7,1.7,2,3.4,2,12.4c0,12.1-0.3,13.2-4.1,15.1C134.1,69,128.3,68.4,124.9,65.1z M136.4,62.4c1.2-1.2,1.6-3.7,1.6-10.4
		s-0.4-9.2-1.6-10.4c-2-2.1-5.3-2-7.6,0.1c-2.5,2.3-2.7,17.7-0.1,20.5C130.7,64.4,134.3,64.5,136.4,62.4z"/>
	<path class="st1" d="M152.3,65.6c-2.8-2.4-2.8-2.6-2.8-13.6s0-11.2,2.8-13.6c3.9-3.3,11.5-3.4,15.3-0.1c2.3,2,2.8,3.4,3.2,8.5
		l0.4,6.2h-8.6H154v3.5c0,3.9,2.8,7.5,6,7.5c2.3,0,6-3.3,6-5.5c0-1,1-1.5,2.6-1.5c2.4,0,2.6,0.3,2,3.3c-0.9,4.9-4.7,7.7-10.6,7.7
		C156.3,68,154.4,67.4,152.3,65.6z M166,46.5c0-3-3.2-6.5-6-6.5s-6,3.5-6,6.5c0,2.4,0.3,2.5,6,2.5S166,48.9,166,46.5z"/>
	<path class="st1" d="M179.8,66.1c-5.2-4.1-4.5-12.7,1.3-15.6c1.5-0.8,4.8-1.5,7.4-1.5c4.1,0,4.5-0.2,4.5-2.5c0-2.9-3.2-6.5-5.8-6.5
		c-2.3,0-5.2,3-5.2,5.4c0,1.2-0.5,1.6-1.6,1.2c-0.9-0.3-2-0.6-2.5-0.6c-1,0-1.2-3.1-0.3-5.5c1-2.4,5.8-4.5,10.4-4.5
		c3.3,0,4.8,0.6,7.1,2.9c2.9,2.9,2.9,3,2.9,15.5v12.5h-3.2c-1.8,0-5.3,0.3-7.8,0.6C183.3,68,182,67.8,179.8,66.1z M191,62
		c1.2-1.2,2-3.3,2-5.5c0-3.5,0-3.5-4.5-3.5c-3.6,0-4.8,0.5-6,2.4C178.7,61.1,186.1,66.9,191,62z"/>
	<path class="st1" d="M208.5,66.8c-4-2.1-4.5-3.9-4.5-14.4c0-11.9,0.3-13,4.1-14.9c7.5-3.9,16.8-0.2,16.9,6.8c0,2.2-0.4,2.7-2.5,2.7
		c-1.8,0-2.5-0.5-2.5-1.8c0-2.4-3.1-5.2-5.7-5.2c-4,0-5.3,3-5.3,12.2c0,9.1,1.3,11.8,5.7,11.8c2.3,0,5.3-3,5.3-5.3
		c0-1.1,0.8-1.7,2.5-1.7c2.1,0,2.5,0.5,2.5,2.8c-0.1,5-4.3,8.2-10.7,8.2C212.2,68,209.6,67.4,208.5,66.8z"/>
	<path class="st1" d="M233.9,65.1c-2.8-2.9-2.9-3.2-2.9-13.1s0.1-10.2,2.9-13.1c3.4-3.3,9.2-3.9,14-1.4c3.8,1.9,4.1,3,4.1,14.5
		s-0.3,12.6-4.1,14.5C243.1,69,237.3,68.4,233.9,65.1z M245.4,62.4c1.2-1.2,1.6-3.7,1.6-10.4s-0.4-9.2-1.6-10.4
		c-2-2.1-5.3-2-7.6,0.1c-2.5,2.3-2.7,17.7-0.1,20.5C239.7,64.4,243.3,64.5,245.4,62.4z"/>
	<path class="st1" d="M258,52.1v-15h3.3c1.7,0,5.3-0.3,7.8-0.7c4-0.5,5-0.2,7.5,1.9c2.9,2.5,2.9,2.6,3.2,15.6l0.4,13.1h-2.6H275
		V55.5c0-10.2-0.2-11.7-2-13.5c-1.1-1.1-2.9-2-4-2s-2.9,0.9-4,2c-1.8,1.8-2,3.3-2,13.5V67h-2.5H258V52.1z"/>
</g>
<g id="layer3">
	<path class="st2" d="M0,65.5C0,64.3,1.6,64,8,64s8,0.3,8,1.5c0,1.2-1.6,1.5-8,1.5S0,66.7,0,65.5z"/>
	<path class="st2" d="M19.4,64.5c-0.3-1.4-0.5-6-0.3-10.3c0.7-14.1,8.7-25.8,21.9-32.1c4.9-2.3,6.7-2.6,16.5-2.6
		c10.1,0,11.5,0.2,16.8,2.8c12.1,6,20.6,18.1,21.5,30.9c0.2,3.6,0.2,8.2-0.2,10.2L94.9,67H83.2H71.5l0.3-11l0.3-11h2.5
		c1.4,0,2.4-0.3,2.2-0.8C76.2,42.7,58.3,26,57.4,26c-0.5,0.1-5.4,4.3-10.9,9.5c-9.7,9.2-9.9,9.5-6.8,9.5h3.2l0.3,11l0.3,11H31.8
		C20.1,67,20,67,19.4,64.5z"/>
	<path class="st2" d="M98,65.5c0-1.2,1.6-1.5,8.5-1.5s8.5,0.3,8.5,1.5c0,1.2-1.6,1.5-8.5,1.5S98,66.7,98,65.5z"/>
	<path class="st2" d="M7.1,41.2c-5.3-1.7-8-4.2-4.6-4.2C6.2,37,17,40.5,17,41.7C17,43.4,13.7,43.2,7.1,41.2z"/>
	<path class="st2" d="M97,41.7c0-0.7,2.7-2,6.4-3c7.7-2,8.6-2.1,8.6-0.4c0,0.8-2.5,2.1-6,3C98.8,43.3,97,43.4,97,41.7z"/>
	<path class="st2" d="M26.2,18.4c-5-4.4-6.6-7.4-3.9-7.4C23.9,11,33,20.1,33,21.8C33,23.8,31.7,23.2,26.2,18.4z"/>
	<path class="st2" d="M80,20.6C80,19.4,90.1,10,91.4,10c1.9,0,0,3.5-4.1,7.4C82.4,22,80,23.1,80,20.6z"/>
	<path class="st2" d="M56,8.1C56,1.5,56.3,0,57.5,0c1.3,0,1.5,1.3,1.3,7.7c-0.2,5-0.7,7.8-1.5,8.1C56.3,16.1,56,14.1,56,8.1z"/>
</g>
</svg>
