<?xml version="1.0" encoding="utf-8"?>
<!-- Generator: Adobe Illustrator 21.0.0, SVG Export Plug-In . SVG Version: 6.00 Build 0)  -->
<svg version="1.1" id="Layer_1" xmlns="http://www.w3.org/2000/svg" xmlns:xlink="http://www.w3.org/1999/xlink" x="0px" y="0px"
	 viewBox="0 0 128 128" style="enable-background:new 0 0 128 128;" xml:space="preserve">
<style type="text/css">
	.st0{fill:#FFFFFF;stroke:#FFFFFF;stroke-width:0.75;stroke-miterlimit:10;}
</style>
<g id="layer1">
	<path class="st0" d="M6.3,126c-6.5-3.9-6.3-2.3-6.3-62.2C0,11.7,0.1,9.4,2,6.3C5.9-0.1,5.1,0,56.2,0c44.4,0,46.4,0.1,49.6,2
		c1.8,1.1,4.1,3.4,5.2,5.2c1.8,3,2,5.1,2,25.8v22.6l-3.8,3.7c-2.1,2-4.3,3.7-5,3.7c-0.9,0-1.2-5.7-1.2-22.9c0-25.4-0.5-28.4-5.2-30
		c-4.2-1.5-79.4-1.5-83.6,0c-2,0.7-3.4,2.1-4.1,4.1c-1.5,4.3-1.5,95.3,0,99.6c0.6,1.7,1.8,3.4,2.7,3.9c0.9,0.4,12.1,1,24.7,1.3
		l23,0.5l0.3,4.3l0.3,4.2H35.3C11.5,128,9.3,127.8,6.3,126z"/>
	<path class="st0" d="M65,126.7c0-0.8,1-5.7,2.1-10.9l2.2-9.3l21.5-21.7C111.7,63.7,112.5,63,116.3,63c3.4,0,4.7,0.7,8.8,4.9
		c4.5,4.4,4.9,5.2,4.9,9.7v4.9l-19.2,19.1c-10.6,10.5-20.8,20.2-22.7,21.5c-1.9,1.3-5.8,2.6-8.5,3.1C65,128.4,65,128.4,65,126.7z
		 M103,100.6L114.5,89l-4.8-4.8l-4.7-4.7L91.3,93.3L77.6,107l4.4,4.5l4.3,4.4l2.6-1.9C90.3,113,96.7,106.9,103,100.6z"/>
	<path class="st0" d="M24.4,79.6c-0.3-0.8-0.4-2.9-0.2-4.8l0.3-3.3H41h16.5V76v4.5l-16.3,0.3C27.9,81,24.9,80.8,24.4,79.6z"/>
	<path class="st0" d="M24.4,63.6c-0.3-0.8-0.4-2.9-0.2-4.8l0.3-3.3H57h32.5V60v4.5l-32.3,0.3C30.1,65,24.9,64.8,24.4,63.6z"/>
	<path class="st0" d="M24.4,47.6c-0.3-0.8-0.4-2.9-0.2-4.8l0.3-3.3H57h32.5V44v4.5l-32.3,0.3C30.1,49,24.9,48.8,24.4,47.6z"/>
	<path class="st0" d="M24.4,31.6c-0.3-0.8-0.4-2.9-0.2-4.8l0.3-3.3H57h32.5V28v4.5l-32.3,0.3C30.1,33,24.9,32.8,24.4,31.6z"/>
</g>
</svg>
